<?xml version="1.0" encoding="utf-8"?>
<svg id="master-artboard" viewBox="0 0 816.6741943359375 819.08251953125" version="1.1" xmlns="http://www.w3.org/2000/svg" x="0px" y="0px" style="enable-background:new 0 0 336 235.2;" width="816.6741943359375px" height="819.08251953125px"><rect id="ee-background" x="0" y="0" width="816.6741943359375" height="819.08251953125" style="fill: white; fill-opacity: 0; pointer-events: none;"/><g transform="matrix(18.29123306274414, 0, 0, 18.29123306274414, -5.227124214172363, -4.022918701171875)"><path d="M 10 0 H 35 A 10 10 0 0 1 45 10 V 35 A 10 10 0 0 1 35 45 H 10 A 10 10 0 0 1 0 35 V 10 A 10 10 0 0 1 10 0 Z" fill="#167E6E"/></g><g transform="matrix(34.028088887532554, 0, 0, 34.028088887532554, 0.00008357060141861439, 171.34468534140856)"><path d="M2 4.5V11.5H6C6 8.1865 8.6865 5.5 12 5.5C15.3135 5.5 18 8.1865 18 11.5H22V4.5C22 4.5 15.9825 2.5 12 2.5C8.0175 2.5 2 4.5 2 4.5Z" fill="#6FFFE9" stroke="#6FFFE9" stroke-width="4" stroke-linecap="round" stroke-linejoin="round" transform="matrix(0.6689727902412415, 0, 0, 0.6689727902412415, 3.7358786130505734, 1.89158406158678)"/></g></svg>