<svg width="15" height="16" viewBox="0 0 15 16" fill="none" xmlns="http://www.w3.org/2000/svg">
<path d="M7.208 11.58C6.58933 11.58 6.10133 11.396 5.744 11.028C5.392 10.6547 5.216 10.1453 5.216 9.5C5.216 8.84933 5.392 8.34 5.744 7.972C6.10133 7.604 6.58933 7.42 7.208 7.42C7.58133 7.42 7.90667 7.48933 8.184 7.628C8.46133 7.76667 8.67467 7.964 8.824 8.22L8.208 8.756C8.10667 8.58 7.97067 8.444 7.8 8.348C7.63467 8.252 7.45333 8.204 7.256 8.204C6.936 8.204 6.68533 8.31867 6.504 8.548C6.32267 8.77733 6.232 9.09467 6.232 9.5C6.232 9.90533 6.32267 10.2227 6.504 10.452C6.68533 10.6813 6.936 10.796 7.256 10.796C7.45333 10.796 7.63467 10.748 7.8 10.652C7.96533 10.5507 8.10133 10.4147 8.208 10.244L8.824 10.78C8.67467 11.036 8.46133 11.2333 8.184 11.372C7.90667 11.5107 7.58133 11.58 7.208 11.58Z" fill="#979DAA"/>
<circle cx="7.5" cy="8" r="7" stroke="#979DAA"/>
</svg>
