<svg width="39" height="40" viewBox="0 0 39 40" fill="none" xmlns="http://www.w3.org/2000/svg">
<path d="M37.9236 20C37.9236 30.7887 29.5273 39.5 19.2118 39.5C8.89633 39.5 0.5 30.7887 0.5 20C0.5 9.21131 8.89633 0.5 19.2118 0.5C29.5273 0.5 37.9236 9.21131 37.9236 20Z" fill="#1D1D1D" stroke="white"/>
<path d="M18.7318 26.5C18.4395 26.5 18.2026 26.2631 18.2026 25.9708V23.659C18.2026 21.6777 16.5963 20.0714 14.615 20.0714H12.5988C12.2832 20.0714 12.0273 19.8156 12.0273 19.5C12.0273 19.1844 12.2832 18.9286 12.5988 18.9286H14.615C16.5963 18.9286 18.2026 17.3223 18.2026 15.341V13.0292C18.2026 12.7369 18.4395 12.5 18.7318 12.5C19.024 12.5 19.261 12.7369 19.261 13.0292V15.341C19.261 17.3223 20.8672 18.9286 22.8486 18.9286H24.8648C25.1804 18.9286 25.4362 19.1844 25.4362 19.5C25.4362 19.8156 25.1804 20.0714 24.8648 20.0714H22.8486C20.8672 20.0714 19.261 21.6777 19.261 23.659V25.9708C19.261 26.2631 19.024 26.5 18.7318 26.5Z" fill="#1D1D1D" stroke="white"/>
</svg>
