<?xml version="1.0" encoding="utf-8"?>
<svg id="master-artboard" viewBox="0 0 816.6741943359375 819.08251953125" version="1.1" xmlns="http://www.w3.org/2000/svg" x="0px" y="0px" style="enable-background:new 0 0 336 235.2;" width="816.6741943359375px" height="819.08251953125px"><rect id="ee-background" x="0" y="0" width="816.6741943359375" height="819.08251953125" style="fill: white; fill-opacity: 0; pointer-events: none;"/><g transform="matrix(18.29123306274414, 0, 0, 18.29123306274414, -5.227124214172363, -4.022918701171875)"><path d="M 10 0 H 35 A 10 10 0 0 1 45 10 V 35 A 10 10 0 0 1 35 45 H 10 A 10 10 0 0 1 0 35 V 10 A 10 10 0 0 1 10 0 Z" fill="#167E6E"/></g><g transform="matrix(27.759159088134766, 0, 0, 27.759159088134766, 132.75700378417923, 203.86192029413337)"><path d="M4 15L0 11L1.4 9.55L3 11.15V4C3 2.9 3.39167 1.95833 4.175 1.175C4.95833 0.391667 5.9 0 7 0C8.1 0 9.04167 0.391667 9.825 1.175C10.6083 1.95833 11 2.9 11 4V11C11 11.55 11.196 12.021 11.588 12.413C11.98 12.805 12.4507 13.0007 13 13C13.5493 12.9993 14.0203 12.8037 14.413 12.413C14.8057 12.0223 15.0013 11.5513 15 11V3.85L13.4 5.45L12 4L16 0L20 4L18.6 5.45L17 3.85V11C17 12.1 16.6083 13.0417 15.825 13.825C15.0417 14.6083 14.1 15 13 15C11.9 15 10.9583 14.6083 10.175 13.825C9.39167 13.0417 9 12.1 9 11V4C9 3.45 8.80433 2.97933 8.413 2.588C8.02167 2.19667 7.55067 2.00067 7 2C6.44933 1.99933 5.97867 2.19533 5.588 2.588C5.19733 2.98067 5.00133 3.45133 5 4V11.15L6.6 9.55L8 11L4 15Z" fill="#6FFFE9"/></g></svg>