<svg width="40" height="40" viewBox="0 0 40 40" fill="none" xmlns="http://www.w3.org/2000/svg">
<circle cx="20" cy="20" r="19.6667" stroke="#5BC0BE" stroke-width="0.666667"/>
<circle cx="19.9999" cy="19.9999" r="16.3333" stroke="#5BC0BE" stroke-width="0.666667"/>
<path d="M14.9467 22.5467C15.2133 23.3022 15.6222 23.84 16.1733 24.16C16.7333 24.48 17.4267 24.64 18.2533 24.64C19.4089 24.64 20.2756 24.4222 20.8533 23.9867C21.4311 23.5422 21.72 22.9111 21.72 22.0933C21.72 21.6667 21.64 21.2978 21.48 20.9867C21.32 20.6667 21.0489 20.3822 20.6667 20.1333C20.2844 19.8844 19.76 19.64 19.0933 19.4C19.9644 19.1156 20.5644 18.7689 20.8933 18.36C21.2222 17.9511 21.3867 17.5111 21.3867 17.04C21.3867 16.4089 21.1244 15.9067 20.6 15.5333C20.0844 15.1511 19.3778 14.96 18.48 14.96C17.68 14.96 17.0133 15.12 16.48 15.44C15.9556 15.7511 15.5911 16.2667 15.3867 16.9867L14.8 16.7867C14.8978 16.3422 15.0889 15.9333 15.3733 15.56C15.6667 15.1867 16.0667 14.8889 16.5733 14.6667C17.0889 14.4356 17.7244 14.32 18.48 14.32C19.2267 14.32 19.8622 14.4356 20.3867 14.6667C20.92 14.8978 21.3244 15.2178 21.6 15.6267C21.8844 16.0356 22.0267 16.5067 22.0267 17.04C22.0267 17.68 21.8667 18.2044 21.5467 18.6133C21.2267 19.0133 20.8178 19.2756 20.32 19.4C20.6489 19.4622 20.9689 19.6 21.28 19.8133C21.5911 20.0178 21.8489 20.3111 22.0533 20.6933C22.2578 21.0667 22.36 21.5333 22.36 22.0933C22.36 23.0889 22.0222 23.8667 21.3467 24.4267C20.68 24.9867 19.6489 25.2667 18.2533 25.2667C17.1778 25.2667 16.32 25.0444 15.68 24.6C15.0489 24.1467 14.6178 23.5422 14.3867 22.7867L14.9467 22.5467ZM16.8667 18.5467H17.9867C18.4311 18.5467 18.8133 18.4444 19.1333 18.24C19.4533 18.0356 19.6133 17.7467 19.6133 17.3733C19.6133 17.0356 19.4978 16.7689 19.2667 16.5733C19.0444 16.3689 18.7511 16.2667 18.3867 16.2667C17.9511 16.2667 17.6 16.3778 17.3333 16.6C17.0756 16.8222 16.9156 17.1156 16.8533 17.48L16.2267 17.2667C16.3867 16.6622 16.6667 16.24 17.0667 16C17.4667 15.7511 17.9067 15.6267 18.3867 15.6267C18.9556 15.6267 19.4089 15.7911 19.7467 16.12C20.0844 16.44 20.2533 16.8578 20.2533 17.3733C20.2533 17.7289 20.1511 18.0444 19.9467 18.32C19.7511 18.5956 19.4844 18.8089 19.1467 18.96C18.8089 19.1111 18.4222 19.1867 17.9867 19.1867H17.5067V19.9467H18.2C19.0178 19.9467 19.6222 20.1289 20.0133 20.4933C20.4044 20.8489 20.6 21.3511 20.6 22C20.6 22.3556 20.4933 22.68 20.28 22.9733C20.0667 23.2667 19.7778 23.5022 19.4133 23.68C19.0578 23.8489 18.6578 23.9333 18.2133 23.9333C17.7244 23.9333 17.2622 23.7956 16.8267 23.52C16.4 23.2444 16.0711 22.7956 15.84 22.1733L16.4533 21.9067C16.56 22.3511 16.7778 22.6933 17.1067 22.9333C17.4444 23.1733 17.8133 23.2933 18.2133 23.2933C18.5244 23.2933 18.8133 23.24 19.08 23.1333C19.3467 23.0178 19.56 22.8622 19.72 22.6667C19.88 22.4711 19.96 22.2489 19.96 22C19.96 21.0578 19.3733 20.5867 18.2 20.5867H16.8667V18.5467ZM25.4591 22.5333H26.1391V25H25.4591V22.5333ZM23.8457 22.5333H24.5257V25H23.8457V22.5333Z" fill="#6FFFE9"/>
</svg>
