<svg width="40" height="40" viewBox="0 0 40 40" fill="none" xmlns="http://www.w3.org/2000/svg">
<circle cx="20" cy="20" r="19.6667" stroke="#5BC0BE" stroke-width="0.666667"/>
<circle cx="19.9999" cy="19.9999" r="16.3333" stroke="#5BC0BE" stroke-width="0.666667"/>
<path d="M16.9867 23.5333C17.0044 22.7956 17.2311 22.1689 17.6667 21.6533C18.1022 21.1378 18.6667 20.7156 19.36 20.3867C20.2489 19.9689 20.8844 19.52 21.2667 19.04C21.6578 18.5511 21.8533 17.9867 21.8533 17.3467C21.8533 16.6356 21.5822 16.0622 21.04 15.6267C20.5067 15.1822 19.76 14.96 18.8 14.96C17.92 14.96 17.1956 15.1867 16.6267 15.64C16.0578 16.0933 15.7378 16.7689 15.6667 17.6667L15.08 17.52C15.0889 16.88 15.2533 16.32 15.5733 15.84C15.8933 15.36 16.3289 14.9867 16.88 14.72C17.44 14.4533 18.08 14.32 18.8 14.32C19.5911 14.32 20.2622 14.4533 20.8133 14.72C21.3644 14.9778 21.7822 15.3333 22.0667 15.7867C22.3511 16.24 22.4933 16.76 22.4933 17.3467C22.4933 18.1022 22.2756 18.7689 21.84 19.3467C21.4133 19.9244 20.68 20.4622 19.64 20.96C19.08 21.2267 18.6089 21.5333 18.2267 21.88C17.8444 22.2267 17.6489 22.5644 17.64 22.8933H22.48V23.5333H16.9867ZM14.9733 23.8933C14.9733 23.2533 15.1111 22.6622 15.3867 22.12C15.6711 21.5778 16.0489 21.0889 16.52 20.6533C17 20.2089 17.5378 19.8311 18.1333 19.52C18.88 19.1289 19.3822 18.7733 19.64 18.4533C19.9067 18.1333 20.04 17.8178 20.04 17.5067C20.04 17.1422 19.9244 16.8578 19.6933 16.6533C19.4622 16.4489 19.1244 16.3467 18.68 16.3467C18.2622 16.3467 17.92 16.5022 17.6533 16.8133C17.3956 17.1244 17.2622 17.5467 17.2533 18.08L16.5867 17.9067C16.6667 17.1511 16.9022 16.5956 17.2933 16.24C17.6844 15.8844 18.1467 15.7067 18.68 15.7067C19.3556 15.7067 19.8578 15.8711 20.1867 16.2C20.5156 16.5289 20.68 16.9644 20.68 17.5067C20.68 17.7644 20.6178 18.0311 20.4933 18.3067C20.3778 18.5822 20.1556 18.8711 19.8267 19.1733C19.5067 19.4667 19.04 19.7733 18.4267 20.0933C17.9022 20.36 17.4267 20.6844 17 21.0667C16.5733 21.4489 16.2356 21.88 15.9867 22.36C15.7378 22.8311 15.6133 23.3467 15.6133 23.9067V24.36H22.48V25H14.9733V23.8933ZM25.4591 22.5333H26.1391V25H25.4591V22.5333ZM23.8457 22.5333H24.5257V25H23.8457V22.5333Z" fill="#6FFFE9"/>
</svg>
